# xmcd CD database file
#
# Track frame offsets:
#	183
#	20983
#	44245
#	63983
#	78633
#	95283
#	110670
#	124945
#	141483
#	155520
#	175845
#	194870
#	212833
#	226720
#
# Disc length: 3234 seconds
#
# Revision: 0
# Processed by: cddbd v1.5.2PL0 Copyright (c) Steve Scherf et al.
# Submitted via: CDex 1.51
#
DISCID=d70ca00e
DTITLE=White House Orchestra - Now You Has Jazz!
DYEAR=1992
DGENRE=Jazz
TTITLE0=Puttin'  on the Ritz
TTITLE1=Stormy weather
TTITLE2=Sing, Sing, Sing
TTITLE3=Minnie the Moocher
TTITLE4=Egyptian Ella
TTITLE5=Now You Has Jazz !
TTITLE6=Everybody loves my baby
TTITLE7=Boogie Blues
TTITLE8=You took advantage of me
TTITLE9=Them there eyes
TTITLE10=Hard hearted Hannah
TTITLE11=Saratoga Shout
TTITLE12=Poor old Joe
TTITLE13=Happy days are here again
EXTD=YEAR: 1992
EXTT0=
EXTT1=
EXTT2=
EXTT3=
EXTT4=
EXTT5=
EXTT6=
EXTT7=
EXTT8=
EXTT9=
EXTT10=
EXTT11=
EXTT12=
EXTT13=
PLAYORDER=
